<svg xmlns="http://www.w3.org/2000/svg" width="30" height="37.52" viewBox="0 0 30 37.52"><defs><style>.a{fill:#595959;}</style></defs><path class="a" d="M22.978,3.979A1.406,1.406,0,0,0,21.594,5.4V6.811H15.031a4.224,4.224,0,0,0-4.219,4.219v8.438a4.224,4.224,0,0,0,4.219,4.219H30.969a4.224,4.224,0,0,0,4.219-4.219V11.03a4.224,4.224,0,0,0-4.219-4.219H24.406V5.4a1.406,1.406,0,0,0-1.428-1.426Zm-4.2,8.458a2.344,2.344,0,1,1-2.344,2.344A2.343,2.343,0,0,1,18.781,12.436Zm8.438,0a2.344,2.344,0,1,1-2.344,2.344A2.343,2.343,0,0,1,27.219,12.436Zm-15,14.063A4.224,4.224,0,0,0,8,30.717v.714a7.969,7.969,0,0,0,2.52,5.819C12.6,39.188,16.453,41.5,23,41.5s10.4-2.31,12.48-4.248A7.967,7.967,0,0,0,38,31.431v-.714A4.224,4.224,0,0,0,33.781,26.5Z" transform="translate(-8 -3.978)"/></svg>