<svg xmlns="http://www.w3.org/2000/svg" width="30" height="26.589" viewBox="0 0 30 26.589"><defs><style>.a{fill:#fff;}</style></defs><path class="a" d="M15.977,3a2.928,2.928,0,0,0-2.077.859L12.034,5.728H25.946L24.7,4.485a2.7,2.7,0,0,0-3.817,0l-1.1,1.1L18.054,3.861A2.932,2.932,0,0,0,15.977,3ZM3.023,5.046a1.023,1.023,0,1,0,0,2.046H4.9a1.014,1.014,0,0,1,1,.831l.2,1.055v.009l2.2,11.548a4.437,4.437,0,0,0,4.355,3.6H25.429a4.436,4.436,0,0,0,4.353-3.6l2.2-11.548a1.022,1.022,0,0,0-1.005-1.213H7.959L7.915,7.54A3.079,3.079,0,0,0,4.9,5.046ZM14.273,25.5a2.045,2.045,0,1,0,2.045,2.045A2.045,2.045,0,0,0,14.273,25.5Zm9.545,0a2.045,2.045,0,1,0,2.045,2.045A2.045,2.045,0,0,0,23.818,25.5Z" transform="translate(-2 -3.002)"/></svg>