<svg xmlns="http://www.w3.org/2000/svg" width="28" height="28" viewBox="0 0 28 28"><defs><style>.a{fill:#fff;}</style></defs><path class="a" d="M30,16.544V16a3.163,3.163,0,0,0-2.154-2.761,12.109,12.109,0,0,0-.958-2.656L28.4,9.471,28.124,9a3.165,3.165,0,0,0-3.255-1.312,12.234,12.234,0,0,0-2.147-1.828l.749-1.712L23,3.876a3.165,3.165,0,0,0-3.46.478,12.125,12.125,0,0,0-2.789-.49L16.544,2H16a3.168,3.168,0,0,0-2.761,2.154,12.112,12.112,0,0,0-2.656.958L9.471,3.6,9,3.876A3.169,3.169,0,0,0,7.688,7.131,12.234,12.234,0,0,0,5.859,9.278L4.147,8.527,3.876,9a3.16,3.16,0,0,0,.478,3.46,12.125,12.125,0,0,0-.49,2.789L2,15.456V16a3.163,3.163,0,0,0,2.154,2.761,12.112,12.112,0,0,0,.958,2.656L3.6,22.529,3.876,23a2.908,2.908,0,0,0,2.673,1.346,5.4,5.4,0,0,0,.583-.033,12.237,12.237,0,0,0,2.147,1.828l-.749,1.712L9,28.124a2.488,2.488,0,0,0,1.267.345,3.868,3.868,0,0,0,2.19-.825,12.172,12.172,0,0,0,2.791.492L15.456,30H16a3.168,3.168,0,0,0,2.761-2.154,12.109,12.109,0,0,0,2.656-.958l1.113,1.51L23,28.126a3.167,3.167,0,0,0,1.313-3.257,12.222,12.222,0,0,0,1.828-2.145l1.712.749L28.126,23a3.161,3.161,0,0,0-.48-3.46,12.02,12.02,0,0,0,.49-2.789Zm-20.087.064A.609.609,0,1,1,10.522,16,.61.61,0,0,1,9.913,16.609ZM16,19.043A3.043,3.043,0,1,1,19.043,16,3.046,3.046,0,0,1,16,19.043Zm6.087-2.435A.609.609,0,1,1,22.7,16,.61.61,0,0,1,22.087,16.609Z" transform="translate(-2 -2)"/></svg>