<svg xmlns="http://www.w3.org/2000/svg" width="40" height="30.968" viewBox="0 0 40 30.968"><defs><style>.a{fill:#595959;opacity:0.8;}</style></defs><path class="a" d="M6.714,6a2.856,2.856,0,0,0-2.79,2.26c0,.015-.008.03-.011.045a2.857,2.857,0,0,0-.053.519c0,.011,0,.022,0,.033v9.487L2.546,19.655H1v2.857h.006l.02,4.925.022,5.96v1.964H2.476l.126.053a6.811,6.811,0,0,0,.977.781,4.35,4.35,0,0,0,2.109.773h9.7L15.7,36.8c12.7-6.749,13.23-7.537,13.454-7.874l.025-.07h8.959a2.856,2.856,0,0,0,2.79-2.26c0-.015.008-.03.011-.045A2.857,2.857,0,0,0,41,26.033c0-.011,0-.022,0-.033V8.857c0-.007,0-.013,0-.02a2.857,2.857,0,0,0-.053-.516c0-.018,0-.037-.008-.056a2.853,2.853,0,0,0-2.2-2.2l-.053-.011A2.857,2.857,0,0,0,38.143,6ZM9.569,8.857h25.72a2.857,2.857,0,0,0,2.854,2.857V23.143A2.857,2.857,0,0,0,35.289,26H15.169L13.33,24.158l5.483-4.425a3.887,3.887,0,0,0,1.381-4.927l-.1-.193a3.915,3.915,0,0,0-4.774-1.847l-7.885,3.1a7.324,7.324,0,0,0-.723.29V11.714A2.857,2.857,0,0,0,9.569,8.857Zm12.891,2.857a5.009,5.009,0,0,0-.907.1,6.762,6.762,0,0,1,.957,1.275c.02.031.041.063.061.1l.056.081.089.19.022.045c.03.061.057.123.084.184l.059.123,0,.017a6.722,6.722,0,0,1-2.366,8.2l-1.381,1.113h6.875a6.706,6.706,0,0,0,2.162-5C28.172,14.593,25.615,11.714,22.459,11.714ZM33.857,16a1.429,1.429,0,1,0,1.429,1.429A1.429,1.429,0,0,0,33.857,16Z" transform="translate(-1 -6)"/></svg>