<svg xmlns="http://www.w3.org/2000/svg" width="30" height="24.973" viewBox="0 0 30 24.973"><defs><style>.a{fill:#fff;}</style></defs><path class="a" d="M5.1,19.736c9.231-4.061,21.178-9.013,22.827-9.7,4.326-1.794,5.653-1.45,4.991,2.522-.475,2.855-1.847,12.308-2.94,18.191-.649,3.489-2.1,3.9-4.392,2.393-1.1-.726-6.654-4.4-7.859-5.261-1.1-.786-2.618-1.731-.715-3.593.677-.663,5.117-4.9,8.576-8.2a.513.513,0,0,0-.639-.8C20.286,18.382,13.823,22.673,13,23.232a4.785,4.785,0,0,1-4.579.616c-1.619-.465-3.2-1.02-3.816-1.231C2.235,21.8,2.8,20.749,5.1,19.736Z" transform="translate(-3.078 -9)"/></svg>