<svg xmlns="http://www.w3.org/2000/svg" width="30" height="24.379" viewBox="0 0 30 24.379"><defs><style>.a{fill:#fff;}</style></defs><path class="a" d="M32,7.322a12.286,12.286,0,0,1-3.535.969,6.165,6.165,0,0,0,2.706-3.4A12.341,12.341,0,0,1,27.26,6.38a6.156,6.156,0,0,0-10.646,4.21,6.223,6.223,0,0,0,.159,1.4A17.472,17.472,0,0,1,4.087,5.561a6.166,6.166,0,0,0,1.9,8.217,6.142,6.142,0,0,1-2.788-.77v.077A6.155,6.155,0,0,0,8.142,19.12a6.157,6.157,0,0,1-1.622.216,6.267,6.267,0,0,1-1.157-.11A6.162,6.162,0,0,0,11.112,23.5,12.419,12.419,0,0,1,2,26.05a17.424,17.424,0,0,0,9.435,2.765c11.321,0,17.51-9.378,17.51-17.511q0-.4-.017-.8A12.524,12.524,0,0,0,32,7.322Z" transform="translate(-1.999 -4.436)"/></svg>